<?xml version="1.0" encoding="utf-8"?>
<!-- Generator: Adobe Illustrator 22.1.0, SVG Export Plug-In . SVG Version: 6.00 Build 0)  -->
<svg version="1.1" id="Layer_1" xmlns="http://www.w3.org/2000/svg" xmlns:xlink="http://www.w3.org/1999/xlink" x="0px" y="0px"
	 viewBox="0 0 47.8 47.3" style="enable-background:new 0 0 47.8 47.3;" xml:space="preserve">
<style type="text/css">
	.st0{fill-rule:evenodd;clip-rule:evenodd;fill:#B0976E;}
</style>
<g id="Forma_1_1_">
	<g>
		<path class="st0" d="M46.4,2.2l-0.8-0.8L44.3,0c0,0-8.5,8.4-10.4,10.2c-1.9,1.9-7.6,0.6-10.2,3.2C21,16.1,1.6,35.2,0.9,35.9
			c-0.7,0.7-1.4,2.3-0.4,3.3c0.7,0.7,2.3,2.4,3.3,3.4c0.5,0.5,0.8,0.8,0.8,0.8c1,1,2.6,2.7,3.3,3.4c1,1,2.6,0.3,3.2-0.3
			c0.7-0.7,20.1-19.8,22.8-22.4c2.7-2.6,1.6-8.4,3.5-10.3C39.3,12,47.8,3.6,47.8,3.6L46.4,2.2z M31.6,14c-0.5,0.1-1.2,0.2-1.9,0.4
			c-0.7,0.2-1.5,0.4-2.3,0.7c-0.4,0.2-0.8,0.4-1.2,0.6c-0.3,0.3-0.7,0.5-1,0.9c-0.7,0.8-1.5,1.6-2.3,2.4c-1.6,1.7-3.4,3.4-5.1,5.2
			c-3.6,3.5-7.2,6.9-10,9.3c-1.4,1.2-2.6,2.2-3.5,2.9c-0.8,0.7-1.3,1.1-1.3,1.1s0.4-0.5,1.1-1.3c0.7-0.8,1.7-2,3-3.4
			c2.5-2.8,5.9-6.4,9.5-9.9c1.8-1.7,3.6-3.5,5.3-5.1c0.9-0.8,1.7-1.5,2.5-2.3c0.3-0.4,1-0.7,1.4-1c0.5-0.2,1-0.4,1.5-0.5
			c0.5-0.1,0.9-0.2,1.3-0.3c0.4,0,0.8-0.1,1.2-0.1c0.8-0.1,1.4-0.1,2-0.1c1.1,0,1.7,0.1,1.7,0.1S32.7,13.8,31.6,14z"/>
	</g>
</g>
</svg>
